<?xml version="1.0" encoding="UTF-8" standalone="no"?>
<svg
   id="Layer_1"
   data-name="Layer 1"
   viewBox="0 0 512 512"
   version="1.1"
   width="512"
   height="512"
   xmlns="http://www.w3.org/2000/svg"
   xmlns:svg="http://www.w3.org/2000/svg"
   xmlns:rdf="http://www.w3.org/1999/02/22-rdf-syntax-ns#"
   xmlns:cc="http://creativecommons.org/ns#"
   xmlns:dc="http://purl.org/dc/elements/1.1/">
  <defs
     id="defs1" />
  <title
     id="title1">viajarcomale</title>
  <metadata
     id="metadata1">
    <rdf:RDF>
      <cc:Work
         rdf:about="">
        <dc:title>viajarcomale</dc:title>
      </cc:Work>
    </rdf:RDF>
  </metadata>
  <rect
     style="fill:#ffffff"
     id="rect1"
     width="512"
     height="512"
     x="0"
     y="0" />
  <path
     d="m 307.33946,237.52565 a 92.973927,92.973927 0 0 1 -9.03065,21.14775 h 18.84247 a 14.612911,14.612911 0 0 0 2.57203,1.2384 v 0 a 13.336425,13.336425 0 0 0 12.72676,-1.90521 l 5.18216,-3.52461 a 101.54735,101.54735 0 0 1 -8.09712,14.59382 95.564997,95.564997 0 0 1 -25.91079,25.89174 99.070582,99.070582 0 0 1 -16.38472,8.89729 93.90747,93.90747 0 0 1 -18.23283,5.71559 99.775502,99.775502 0 0 1 -38.61846,0 93.354959,93.354959 0 0 1 -17.92796,-5.54414 l -0.30483,-0.1144 a 99.851716,99.851716 0 0 1 -16.38478,-8.89726 94.898186,94.898186 0 0 1 -14.2128,-11.69798 c -1.90518,-1.9052 -3.69609,-3.8104 -5.42982,-5.90614 a 92.535732,92.535732 0 0 1 8.64963,-6.59201 q 2.15288,2.49586 4.45818,4.80114 v 0 a 82.571523,82.571523 0 0 0 12.55527,10.34526 90.516205,90.516205 0 0 0 14.65103,7.9256 l 0.24766,0.11439 a 81.71417,81.71417 0 0 0 15.81319,4.85825 c 1.35269,0.26672 2.7435,0.51441 4.13427,0.70496 a 171.94463,171.94463 0 0 1 -30.48324,-32.84573 h -15.24163 c 5.71563,-3.61986 12.079,-7.14449 18.38524,-10.45956 0.47627,0.81925 0.97164,1.61944 1.48604,2.4196 h 34.78903 v -19.50926 l 2.66727,-1.12407 a 12.822019,12.822019 0 0 0 5.71561,5.58225 v 15.03206 h 34.61755 c 8.2686,-12.97445 12.72678,-26.04413 13.33645,-39.19006 l 5.48697,18.04229 z m -70.62589,-31.05481 c 1.29553,-4.13429 4.89638,-7.44932 10.11664,-10.80249 l -17.83272,-20.84296 c -1.20025,-1.04784 -0.89543,-1.90518 0.22864,-2.6482 l 5.92518,-2.53395 a 3.4674702,3.4674702 0 0 1 2.87686,0.36202 l 25.89174,13.05062 30.48325,-17.62312 -42.14313,-52.39311 c -1.08596,-1.20028 -0.93352,-2.13381 0.76209,-2.7435 l 9.52602,-3.8104 63.32897,40.94282 22.86244,-11.10733 c 8.70679,-3.81042 16.21327,-4.4201 20.95723,-1.58133 a 5.5250901,5.5250901 0 0 1 3.39126,5.71561 c 0.0951,5.71563 -4.6868,11.8885 -13.12686,17.14686 l -23.75786,9.25929 -1.90518,75.31265 -8.49722,5.71564 c -1.46703,1.04785 -2.32438,0.66679 -2.7054,-0.91452 l -19.66169,-64.22438 -31.70262,15.24164 -3.81037,28.57804 a 3.5246262,3.5246262 0 0 1 -1.39081,2.62918 l -5.39173,3.46745 c -1.2384,0.49537 -2.11481,0.26674 -2.28627,-1.31458 l -7.16355,-26.48231 c -5.71559,2.43865 -10.51672,3.54368 -14.67008,2.24813 -0.38105,-0.11441 -0.41913,-0.28579 -0.30483,-0.64777 z m -8.00184,-13.20306 c -25.18677,13.33641 -58.87078,34.99858 -71.25464,47.63007 -40.50461,41.70491 -8.8973,74.20766 38.42799,59.97581 -14.82248,-2.191 -26.42518,-5.18218 -32.86476,-9.41172 -27.49209,-18.06133 60.96651,-57.04176 81.65701,-65.57708 l -1.61939,-6.00141 a 25.110584,25.110584 0 0 1 -9.65942,-1.00973 l -1.16219,-0.51441 a 11.526482,11.526482 0 0 1 -6.76346,-6.68729 l -0.24768,-0.66679 a 11.583637,11.583637 0 0 1 -0.13337,-8.11615 24.958168,24.958168 0 0 1 4.59159,-8.51628 l -0.93358,-1.10502 z m -74.58874,33.51252 a 101.56639,101.56639 0 0 1 -0.64775,-11.64079 97.984618,97.984618 0 0 1 1.90519,-19.31873 91.964175,91.964175 0 0 1 5.52513,-17.928 l 0.11437,-0.28576 a 101.58545,101.58545 0 0 1 8.91635,-16.40379 93.678858,93.678858 0 0 1 11.67888,-14.19379 94.898186,94.898186 0 0 1 14.21284,-11.69795 99.851716,99.851716 0 0 1 16.38475,-8.89733 94.326619,94.326619 0 0 1 18.2328,-5.71559 98.117977,98.117977 0 0 1 11.18351,-1.56226 17.60408,17.60408 0 0 0 1.40986,1.90519 l 10.89775,13.58409 v 28.80674 h 19.47121 l -9.88799,5.71558 -17.94704,-9.03067 v -25.54879 a 198.38882,198.38882 0 0 0 -27.51111,28.86388 h 2.53389 a 13.050643,13.050643 0 0 0 -4.13425,6.66818 10.326203,10.326203 0 0 0 -0.32391,1.52417 v 0.17143 h -3.94379 a 98.53712,98.53712 0 0 0 -10.93586,22.38616 c -3.44843,2.07667 -6.91588,4.19145 -10.34526,6.36336 a 96.536662,96.536662 0 0 1 11.43124,-28.82568 h -26.23466 a 93.202557,93.202557 0 0 0 -5.0869,10.13565 l -0.1144,0.24767 a 80.228121,80.228121 0 0 0 -4.85828,15.88941 85.276896,85.276896 0 0 0 -1.56225,12.9935 h 10.59292 a 248.4195,248.4195 0 0 0 -20.95727,15.81317 z m 147.67234,-7.43027 h -20.59524 l 1.12405,-8.38291 h 16.95632 l 2.53392,8.38291 z m -8.59247,47.36332 a 173.04961,173.04961 0 0 1 -30.48326,32.86478 c 1.39081,-0.20958 2.76256,-0.45725 4.13432,-0.72402 a 82.857294,82.857294 0 0 0 16.0418,-4.97256 89.716035,89.716035 0 0 0 14.65102,-7.92564 82.571523,82.571523 0 0 0 12.55529,-10.34527 v 0 a 81.447443,81.447443 0 0 0 7.86847,-8.89729 z m -39.28531,29.39729 a 178.76523,178.76523 0 0 0 29.03532,-29.39729 h -29.03532 z m -8.34476,-29.39729 h -29.05438 a 179.5273,179.5273 0 0 0 29.05438,29.39729 z M 207.77352,163.43233 a 191.62538,191.62538 0 0 1 29.645,-32.78861 c -1.63847,0.22865 -3.2579,0.49536 -4.85832,0.81925 a 80.018548,80.018548 0 0 0 -16.06083,4.97257 90.516205,90.516205 0 0 0 -14.65101,7.92566 82.571523,82.571523 0 0 0 -12.55528,10.34523 v 0 a 82.380998,82.380998 0 0 0 -7.62082,8.7068 z"
     id="path1"
     style="fill:#172157;fill-opacity:1;stroke-width:1.90519" />
  <path
     style="font-stretch:condensed;font-size:73.6682px;font-family:'Instagram Sans Condensed';-inkscape-font-specification:'Instagram Sans Condensed,  Condensed';fill:#2096cc;stroke-width:1.90519"
     d="m 108.00098,356.74591 h -5.37778 v -1.47337 q 0,-13.40761 -12.228921,-13.40761 -5.525114,0 -8.766515,3.53607 -3.167733,3.46241 -3.167733,10.16621 v 15.54399 q 0,6.2618 3.020397,10.01888 3.020396,3.75708 8.692847,3.75708 h 0.442009 q 5.30411,0 8.324506,-2.94673 3.0204,-2.94673 3.0204,-7.29315 v -1.98904 q 0,-4.6411 -2.357386,-6.55647 v 2.13637 q 0,5.15678 -2.43105,7.95617 -2.357383,2.72572 -6.703806,2.72572 -3.68341,0 -6.188129,-2.43105 -2.504719,-2.50472 -2.504719,-6.63014 0,-4.27275 2.431051,-6.77747 2.504719,-2.50472 6.998479,-2.50472 h 3.536073 v -2.87306 q 0,-5.15677 -3.978083,-5.15677 -1.841705,0 -2.873059,1.32603 -0.957687,1.32602 -0.957687,3.2414 v 0.73668 h -4.714765 v -0.73668 q 0,-4.56743 2.431051,-6.92481 2.431051,-2.35739 6.11446,-2.35739 4.272756,0 6.55647,2.50472 2.283714,2.43105 2.283714,6.92481 v 3.83075 q 3.757076,1.17869 5.672456,4.27275 1.98904,3.09407 1.98904,7.58783 v 1.32603 q 0,7.66149 -4.71477,11.71324 -4.714763,4.05175 -12.081582,4.05175 h -0.294673 q -5.009438,0 -8.98752,-2.13638 -3.904415,-2.21004 -6.188129,-6.40913 -2.283714,-4.19909 -2.283714,-9.94521 v -16.28067 q 0,-5.89345 2.283714,-10.09254 2.357382,-4.19909 6.335465,-6.33547 3.978083,-2.13637 9.061188,-2.13637 8.324507,0 12.965601,4.78843 4.6411,4.78843 4.6411,13.77595 z m -17.680369,17.45936 q 2.357383,0 3.388737,-1.47337 1.031355,-1.54703 1.031355,-4.64109 v -3.38874 h -3.462405 q -2.283714,0 -3.536074,1.25236 -1.252359,1.25236 -1.252359,3.68341 0,2.06271 1.105023,3.31507 1.105023,1.25236 2.725723,1.25236 z m 42.138189,14.95464 h -7.51416 l -12.89193,-51.56774 h 6.18813 l 10.46088,44.7166 10.53455,-44.7166 h 6.11446 z m 20.40598,-43.16956 q -1.69437,0 -2.94673,-1.25236 -1.25236,-1.25236 -1.25236,-2.94673 0,-1.69437 1.25236,-2.94673 1.25236,-1.25236 2.94673,-1.25236 1.69436,0 2.94672,1.25236 1.25236,1.25236 1.25236,2.94673 0,1.69437 -1.25236,2.94673 -1.25236,1.25236 -2.94672,1.25236 z m 2.87306,43.16956 h -5.74612 v -35.2134 h 5.74612 z m 15.39664,0.88402 q -4.27276,0 -6.92482,-2.79939 -2.57838,-2.79939 -2.57838,-7.29315 0,-4.34643 2.35738,-6.85114 2.35738,-2.57839 6.92481,-3.90442 l 5.30411,-1.54703 q 1.91537,-0.51568 2.72572,-1.3997 0.81035,-0.88402 0.81035,-2.65205 0,-2.43105 -1.54703,-3.90442 -1.54703,-1.47336 -4.34642,-1.47336 -2.57839,0 -4.19909,1.54703 -1.54703,1.47337 -1.54703,4.19909 v 1.39969 h -5.74612 v -1.39969 q 0,-5.00944 3.09406,-7.95617 3.16774,-2.94672 8.39818,-2.94672 5.59878,0 8.61918,2.79939 3.02039,2.79939 3.02039,8.02983 v 25.26819 h -5.59878 v -5.37778 q -0.81035,2.94673 -3.16773,4.6411 -2.35738,1.6207 -5.59878,1.6207 z m 1.32602,-5.15677 q 3.83075,0 5.52512,-2.72573 1.76803,-2.72572 1.76803,-6.85114 v -4.42009 q -0.58934,0.66301 -1.47336,1.10502 -0.88402,0.36834 -2.43105,0.81035 l -3.31507,0.95769 q -5.15677,1.47336 -5.15677,5.96712 0,2.35739 1.32602,3.75708 1.3997,1.3997 3.75708,1.3997 z m 22.68978,-38.89681 q -1.69437,0 -2.94673,-1.25236 -1.25236,-1.25236 -1.25236,-2.94673 0,-1.69437 1.25236,-2.94673 1.25236,-1.25236 2.94673,-1.25236 1.69436,0 2.94672,1.25236 1.25236,1.25236 1.25236,2.94673 0,1.69437 -1.25236,2.94673 -1.25236,1.25236 -2.94672,1.25236 z m -8.25084,59.5239 -0.58935,-5.30411 h 3.0204 q 1.47336,0 2.21004,-0.73668 0.73669,-0.66301 0.73669,-2.21005 v -43.3169 h 5.74612 v 43.46424 q 0,4.19909 -2.06271,6.11446 -1.98905,1.98904 -6.2618,1.98904 z m 26.52053,-15.47032 q -4.27275,0 -6.92481,-2.79939 -2.57838,-2.79939 -2.57838,-7.29315 0,-4.34643 2.35738,-6.85114 2.35738,-2.57839 6.92481,-3.90442 l 5.30411,-1.54703 q 1.91537,-0.51568 2.72572,-1.3997 0.81035,-0.88402 0.81035,-2.65205 0,-2.43105 -1.54703,-3.90442 -1.54703,-1.47336 -4.34642,-1.47336 -2.57839,0 -4.19909,1.54703 -1.54703,1.47337 -1.54703,4.19909 v 1.39969 h -5.74612 v -1.39969 q 0,-5.00944 3.09406,-7.95617 3.16774,-2.94672 8.39818,-2.94672 5.59878,0 8.61918,2.79939 3.02039,2.79939 3.02039,8.02983 v 25.26819 h -5.59878 v -5.37778 q -0.81035,2.94673 -3.16773,4.6411 -2.35738,1.6207 -5.59879,1.6207 z m 1.32603,-5.15677 q 3.83075,0 5.52512,-2.72573 1.76803,-2.72572 1.76803,-6.85114 v -4.42009 q -0.58934,0.66301 -1.47336,1.10502 -0.88402,0.36834 -2.43105,0.81035 l -3.31507,0.95769 q -5.15677,1.47336 -5.15677,5.96712 0,2.35739 1.32602,3.75708 1.3997,1.3997 3.75708,1.3997 z m 19.81672,4.27275 v -35.2134 h 5.74612 v 4.4201 q 0.95769,-2.43106 2.94673,-3.83075 1.98904,-1.47336 4.6411,-1.47336 6.99848,0 6.99848,7.95616 v 7.07215 h -5.74612 v -6.77748 q 0,-1.47336 -0.81035,-2.21004 -0.73669,-0.73668 -1.98905,-0.73668 -1.17869,0 -2.21004,0.81035 -0.95769,0.81035 -2.06271,2.43105 -0.95769,1.32602 -1.3997,2.87306 -0.36834,1.54703 -0.36834,4.19908 v 20.47976 z m 40.07536,0.88402 q -6.70381,0 -10.53455,-4.05175 -3.75708,-4.12542 -3.75708,-11.41857 v -22.39513 q 0,-7.29315 3.75708,-11.34491 3.83074,-4.12541 10.53455,-4.12541 6.70381,0 10.38722,4.12541 3.75707,4.05176 3.75707,11.34491 v 4.27275 h -6.18812 v -4.78843 q 0,-4.71477 -2.13638,-6.92481 -2.13638,-2.28372 -5.81979,-2.28372 -3.75708,0 -5.96712,2.28372 -2.13638,2.28371 -2.13638,6.92481 v 23.42649 q 0,4.64109 2.13638,6.92481 2.21004,2.28371 5.96712,2.28371 3.68341,0 5.81979,-2.21004 2.13638,-2.28372 2.13638,-6.99848 v -4.78844 h 6.18812 v 4.27276 q 0,7.29315 -3.75707,11.41857 -3.68341,4.05175 -10.38722,4.05175 z m 32.26655,0 q -5.45144,0 -8.69285,-3.31507 -3.2414,-3.38874 -3.2414,-9.57686 v -11.19757 q 0,-6.18813 3.2414,-9.5032 3.24141,-3.38873 8.69285,-3.38873 5.45145,0 8.69285,3.38873 3.2414,3.31507 3.2414,9.5032 V 377.152 q 0,6.18812 -3.2414,9.57686 -3.2414,3.31507 -8.69285,3.31507 z m 0,-5.30411 q 2.94673,0 4.56743,-1.76804 1.6207,-1.8417 1.6207,-5.37777 v -12.08159 q 0,-3.53607 -1.6207,-5.30411 -1.6207,-1.8417 -4.56743,-1.8417 -2.94673,0 -4.56743,1.8417 -1.6207,1.76804 -1.6207,5.30411 v 12.08159 q 0,3.53607 1.6207,5.37777 1.6207,1.76804 4.56743,1.76804 z m 18.56431,4.42009 v -35.2134 h 5.74612 v 4.34643 q 0.95769,-2.72573 3.0204,-3.97809 2.06271,-1.25235 4.71476,-1.25235 3.09407,0 4.78844,1.47336 1.69436,1.47336 2.35738,3.68341 0.88402,-2.28372 2.87306,-3.68341 1.98904,-1.47336 4.78843,-1.47336 3.46241,0 5.59878,2.28371 2.21005,2.21005 2.21005,5.96712 v 27.84658 h -5.74612 v -27.03623 q 0,-1.8417 -0.95769,-2.87306 -0.88402,-1.03135 -2.57838,-1.03135 -2.35739,0 -4.4201,2.72572 -0.88401,1.10503 -1.17869,2.35738 -0.29467,1.1787 -0.29467,3.0204 v 22.83714 h -5.74612 v -27.03623 q 0,-1.8417 -0.95769,-2.87306 -0.88401,-1.03135 -2.57838,-1.03135 -2.35738,0 -4.42009,2.72572 -0.88402,1.10503 -1.1787,2.35738 -0.29467,1.1787 -0.29467,3.0204 v 22.83714 z m 72.63675,0 h -6.11446 l -2.43106,-11.1239 H 374.9002 l -2.43105,11.1239 h -6.18813 l 11.93425,-51.56774 h 7.95617 z m -15.91234,-44.64293 -6.04079,27.77291 h 12.15526 z m 26.37312,44.64293 h -5.74612 v -51.56774 h 5.74612 z m 30.71961,-16.79635 H 420.9427 v 5.67245 q 0,3.2414 1.69437,5.00944 1.76804,1.69437 4.64109,1.69437 3.0204,0 4.49376,-1.69437 1.54704,-1.76804 1.54704,-5.00944 v -0.58934 h 5.89345 v 0.221 q 0,5.67245 -3.09406,9.06119 -3.0204,3.31507 -8.69285,3.31507 -5.59878,0 -8.91385,-3.53607 -3.31507,-3.53608 -3.31507,-9.65054 V 366.2491 q 0,-5.74612 3.2414,-9.42953 3.2414,-3.75707 8.76652,-3.75707 5.74612,0 8.91385,3.68341 3.16773,3.60974 3.16773,9.50319 z m -12.00792,-13.99695 q -2.65205,0 -4.49376,1.8417 -1.8417,1.84171 -1.8417,5.08311 v 2.21004 h 12.59726 v -2.21004 q 0,-3.2414 -1.76804,-5.08311 -1.69436,-1.8417 -4.49376,-1.8417 z m -3.31506,-10.01888 h -6.0408 v -0.73668 l 6.40914,-10.01888 h 5.89345 l 6.40914,10.01888 v 0.73668 h -6.0408 l -3.31507,-5.81979 z"
     id="text1"
     aria-label="@ViajarComAlê" />
</svg>
