<?xml version="1.0" encoding="UTF-8" standalone="no"?>
<svg
   id="Layer_1"
   data-name="Layer 1"
   viewBox="0 0 512 512"
   version="1.1"
   width="512"
   height="512"
   xmlns="http://www.w3.org/2000/svg"
   xmlns:svg="http://www.w3.org/2000/svg"
   xmlns:rdf="http://www.w3.org/1999/02/22-rdf-syntax-ns#"
   xmlns:cc="http://creativecommons.org/ns#"
   xmlns:dc="http://purl.org/dc/elements/1.1/">
  <defs
     id="defs1" />
  <title
     id="title1">viajarcomale</title>
  <metadata
     id="metadata1">
    <rdf:RDF>
      <cc:Work
         rdf:about="">
        <dc:title>viajarcomale</dc:title>
      </cc:Work>
    </rdf:RDF>
  </metadata>
  <rect
     style="fill:#ffffff;fill-opacity:1"
     id="rect1"
     width="512"
     height="512"
     x="0"
     y="0" />
  <path
     d="m 302.74739,234.38379 a 84.658122,84.658122 0 0 1 -8.22293,19.25624 h 17.15716 a 13.305898,13.305898 0 0 0 2.34198,1.12763 v 0 a 12.143584,12.143584 0 0 0 11.58844,-1.73481 l 4.71865,-3.20936 a 92.464718,92.464718 0 0 1 -7.37289,13.28853 87.017444,87.017444 0 0 1 -23.59327,23.57591 90.209478,90.209478 0 0 1 -14.91924,8.1015 85.508167,85.508167 0 0 1 -16.60203,5.20439 90.851352,90.851352 0 0 1 -35.16434,0 85.005075,85.005075 0 0 1 -16.32445,-5.04827 l -0.27755,-0.10416 a 90.920742,90.920742 0 0 1 -14.91928,-8.10149 86.41027,86.41027 0 0 1 -12.94158,-10.65166 c -1.73479,-1.7348 -3.3655,-3.4696 -4.94415,-5.37788 a 84.25912,84.25912 0 0 1 7.87597,-6.00242 q 1.96033,2.27263 4.05943,4.37172 v 0 a 75.186132,75.186132 0 0 0 11.4323,9.41995 82.420224,82.420224 0 0 0 13.34059,7.21672 l 0.22553,0.10417 a 74.405464,74.405464 0 0 0 14.39881,4.4237 c 1.23171,0.24287 2.49813,0.4684 3.76451,0.6419 a 156.56549,156.56549 0 0 1 -27.75677,-29.90791 h -13.87837 c 5.2044,-3.2961 10.99861,-6.50547 16.7408,-9.52404 0.4337,0.74597 0.88476,1.4746 1.35314,2.2032 h 31.67742 v -17.76432 l 2.4287,-1.02353 a 11.675188,11.675188 0 0 0 5.2044,5.08295 v 13.68756 h 31.52128 c 7.52903,-11.81397 11.58845,-23.71468 12.1436,-35.6848 l 4.99619,16.42854 z m -64.30894,-28.2772 c 1.17965,-3.76451 4.45842,-6.78305 9.21178,-9.8363 l -16.23773,-18.9787 c -1.0929,-0.95414 -0.81533,-1.73478 0.20818,-2.41134 l 5.39523,-2.3073 a 3.1573315,3.1573315 0 0 1 2.61955,0.32962 l 23.57591,11.88335 27.75676,-16.04686 -38.37373,-47.70695 c -0.98883,-1.09293 -0.85005,-1.94297 0.69393,-2.49811 l 8.67397,-3.4696 57.66468,37.28081 20.81757,-10.11388 c 7.92804,-3.46959 14.76312,-4.02474 19.08276,-1.43989 a 5.0309131,5.0309131 0 0 1 3.08795,5.2044 c 0.0866,5.20442 -4.2676,10.82515 -11.95275,15.6132 l -21.63292,8.43111 -1.73479,68.57653 -7.73719,5.20441 c -1.33581,0.95413 -2.11648,0.60716 -2.46343,-0.83271 l -17.9031,-58.48001 -28.86706,13.87839 -3.46957,26.02195 a 3.2093755,3.2093755 0 0 1 -1.26641,2.39402 l -4.90948,3.15732 c -1.12763,0.45105 -1.92565,0.24288 -2.08178,-1.19701 l -6.52283,-24.11367 c -5.20437,2.22054 -9.57607,3.22672 -13.35795,2.04705 -0.34695,-0.10417 -0.38163,-0.26022 -0.27755,-0.58983 z m -7.28614,-12.02215 c -22.93402,12.14359 -53.60524,31.86823 -64.88146,43.36994 -36.88179,37.97471 -8.10151,67.57035 34.99089,54.61141 -13.49672,-1.99501 -24.06164,-4.71864 -29.92526,-8.5699 -25.03314,-16.44589 55.51353,-51.93982 74.35343,-59.71171 l -1.47456,-5.46463 a 22.864634,22.864634 0 0 1 -8.79545,-0.91942 l -1.05823,-0.4684 a 10.495527,10.495527 0 0 1 -6.15854,-6.08915 l -0.22552,-0.60717 a 10.547568,10.547568 0 0 1 -0.12143,-7.39023 22.725851,22.725851 0 0 1 4.18088,-7.75456 l -0.85006,-1.00618 z m -67.91735,30.51509 a 92.482059,92.482059 0 0 1 -0.58982,-10.59962 89.220644,89.220644 0 0 1 1.73479,-17.59082 83.738685,83.738685 0 0 1 5.03094,-16.32447 l 0.10415,-0.26021 a 92.499418,92.499418 0 0 1 8.11884,-14.9366 85.300003,85.300003 0 0 1 10.63431,-12.92425 86.41027,86.41027 0 0 1 12.94159,-10.65167 90.920742,90.920742 0 0 1 14.91926,-8.10151 85.889827,85.889827 0 0 1 16.60202,-5.20439 89.342074,89.342074 0 0 1 10.18324,-1.42252 16.02953,16.02953 0 0 0 1.28376,1.73478 l 9.92303,12.36911 v 26.23017 h 17.72965 l -9.00359,5.20438 -16.3418,-8.22295 v -23.26364 a 180.64447,180.64447 0 0 0 -25.05047,26.28221 h 2.30726 a 11.883362,11.883362 0 0 0 -3.76448,6.07178 9.4026035,9.4026035 0 0 0 -0.29493,1.38784 v 0.15612 h -3.59104 a 89.723727,89.723727 0 0 0 -9.95773,20.38387 c -3.13999,1.89093 -6.29732,3.81655 -9.41995,5.79422 A 87.902197,87.902197 0 0 1 207.14278,174.4639 H 183.2546 a 84.866302,84.866302 0 0 0 -4.6319,9.22911 l -0.10416,0.22551 a 73.05233,73.05233 0 0 0 -4.42375,14.46822 77.649532,77.649532 0 0 0 -1.42254,11.83132 h 9.64548 a 226.20027,226.20027 0 0 0 -19.08279,14.39882 z m 134.46418,-6.7657 h -18.75315 l 1.02351,-7.63312 h 15.43971 l 2.30728,7.63312 z m -7.82394,43.12705 a 157.57166,157.57166 0 0 1 -27.75676,29.92526 c 1.2664,-0.19083 2.51547,-0.41635 3.76451,-0.65924 a 75.446344,75.446344 0 0 0 14.607,-4.52782 81.691623,81.691623 0 0 0 13.34059,-7.21675 75.186132,75.186132 0 0 0 11.43232,-9.41997 v 0 a 74.162595,74.162595 0 0 0 7.16471,-8.10148 z m -35.77153,26.76793 a 162.77605,162.77605 0 0 0 26.43832,-26.76793 h -26.43832 z m -7.5984,-26.76793 h -26.45568 a 163.46997,163.46997 0 0 0 26.45568,26.76793 z m -34.41841,-94.04335 a 174.48596,174.48596 0 0 1 26.99347,-29.8559 c -1.49193,0.20818 -2.9665,0.45105 -4.42377,0.74597 a 72.861504,72.861504 0 0 0 -14.6243,4.52782 82.420224,82.420224 0 0 0 -13.34061,7.21676 75.186132,75.186132 0 0 0 -11.4323,9.41995 v 0 a 75.012649,75.012649 0 0 0 -6.9392,7.92803 z"
     id="path1"
     style="fill:#172157;fill-opacity:1;stroke-width:1.73478" />
  <path
     style="font-stretch:condensed;font-size:67.0792px;font-family:'Instagram Sans Condensed';-inkscape-font-specification:'Instagram Sans Condensed,  Condensed';fill:#2096cc;stroke-width:1.73478"
     d="m 121.23824,342.94064 h -4.89678 v -1.34159 q 0,-12.20841 -11.13514,-12.20841 -5.03094,0 -7.982429,3.2198 -2.884406,3.15272 -2.884406,9.25693 v 14.15371 q 0,5.70173 2.750247,9.12277 2.750248,3.42104 7.915348,3.42104 h 0.40247 q 4.82971,0 7.57995,-2.68317 2.75025,-2.68316 2.75025,-6.64084 v -1.81114 q 0,-4.22598 -2.14653,-5.97004 v 1.94529 q 0,4.69555 -2.21362,7.24456 -2.14653,2.48193 -6.10421,2.48193 -3.35396,0 -5.634648,-2.21362 -2.280693,-2.28069 -2.280693,-6.03712 0,-3.8906 2.213614,-6.17129 2.280697,-2.28069 6.372527,-2.28069 h 3.2198 v -2.61609 q 0,-4.69555 -3.62228,-4.69555 -1.67698,0 -2.61609,1.20743 -0.87203,1.20742 -0.87203,2.95148 v 0.6708 h -4.293066 v -0.6708 q 0,-4.15891 2.213614,-6.30544 2.213612,-2.14654 5.567572,-2.14654 3.8906,0 5.97005,2.2807 2.07946,2.21361 2.07946,6.30544 v 3.48812 q 3.42104,1.07327 5.16509,3.89059 1.81114,2.81733 1.81114,6.90916 v 1.20743 q 0,6.97623 -4.29307,10.66559 -4.29306,3.68936 -11.00099,3.68936 h -0.26831 q -4.56139,0 -8.183664,-1.9453 -3.555198,-2.01238 -5.634653,-5.83589 -2.079455,-3.82352 -2.079455,-9.05569 v -14.82451 q 0,-5.36633 2.079455,-9.18985 2.146534,-3.82351 5.768811,-5.76881 3.622276,-1.9453 8.250746,-1.9453 7.57995,0 11.80594,4.36015 4.22598,4.36015 4.22598,12.54381 z m -16.099,15.89777 q 2.14653,0 3.08564,-1.34159 0.93911,-1.40866 0.93911,-4.22599 v -3.08564 h -3.15272 q -2.07946,0 -3.21981,1.14035 -1.14034,1.14034 -1.14034,3.35396 0,1.87822 1.00619,3.01856 1.00618,1.14035 2.48193,1.14035 z m 38.36928,13.61708 h -6.84208 l -11.73886,-46.95544 h 5.63466 l 9.52524,40.71707 9.59233,-40.71707 h 5.56757 z m 18.58083,-39.30842 q -1.54282,0 -2.68316,-1.14034 -1.14035,-1.14035 -1.14035,-2.68317 0,-1.54282 1.14035,-2.68317 1.14034,-1.14034 2.68316,-1.14034 1.54283,0 2.68317,1.14034 1.14035,1.14035 1.14035,2.68317 0,1.54282 -1.14035,2.68317 -1.14034,1.14034 -2.68317,1.14034 z m 2.61609,39.30842 h -5.23217 v -32.06386 h 5.23217 z m 14.01954,0.80495 q -3.89059,0 -6.30544,-2.54901 -2.34777,-2.54901 -2.34777,-6.64084 0,-3.95768 2.14653,-6.23837 2.14654,-2.34777 6.30545,-3.5552 l 4.8297,-1.40866 q 1.74406,-0.46956 2.48193,-1.27451 0.73787,-0.80495 0.73787,-2.41485 0,-2.21361 -1.40866,-3.55519 -1.40867,-1.34159 -3.95768,-1.34159 -2.34777,0 -3.82351,1.40866 -1.40866,1.34159 -1.40866,3.82352 v 1.2745 h -5.23218 v -1.2745 q 0,-4.56139 2.81732,-7.24455 2.88441,-2.68317 7.64703,-2.68317 5.09802,0 7.84827,2.54901 2.75025,2.54901 2.75025,7.31163 v 23.00817 h -5.09802 v -4.89679 q -0.73787,2.68317 -2.88441,4.22599 -2.14653,1.47575 -5.09802,1.47575 z m 1.20743,-4.69555 q 3.48812,0 5.03094,-2.48193 1.6099,-2.48193 1.6099,-6.23836 v -4.02476 q -0.53663,0.60372 -1.34158,1.00619 -0.80495,0.3354 -2.21362,0.73787 l -3.01856,0.87203 q -4.69555,1.34159 -4.69555,5.43342 0,2.14653 1.20743,3.42104 1.2745,1.2745 3.42104,1.2745 z m 20.66036,-35.41782 q -1.54282,0 -2.68317,-1.14034 -1.14034,-1.14035 -1.14034,-2.68317 0,-1.54282 1.14034,-2.68317 1.14035,-1.14034 2.68317,-1.14034 1.54282,0 2.68317,1.14034 1.14035,1.14035 1.14035,2.68317 0,1.54282 -1.14035,2.68317 -1.14035,1.14034 -2.68317,1.14034 z m -7.51287,54.2 -0.53663,-4.8297 h 2.75025 q 1.34158,0 2.01237,-0.6708 0.67079,-0.60371 0.67079,-2.01237 v -39.44257 h 5.23218 v 39.57673 q 0,3.82351 -1.87822,5.56757 -1.81114,1.81114 -5.70173,1.81114 z m 24.1485,-14.08663 q -3.89059,0 -6.30544,-2.54901 -2.34778,-2.54901 -2.34778,-6.64084 0,-3.95768 2.14654,-6.23837 2.14653,-2.34777 6.30544,-3.5552 l 4.82971,-1.40866 q 1.74406,-0.46956 2.48193,-1.27451 0.73787,-0.80495 0.73787,-2.41485 0,-2.21361 -1.40867,-3.55519 -1.40866,-1.34159 -3.95767,-1.34159 -2.34777,0 -3.82351,1.40866 -1.40867,1.34159 -1.40867,3.82352 v 1.2745 h -5.23217 v -1.2745 q 0,-4.56139 2.81732,-7.24455 2.88441,-2.68317 7.64703,-2.68317 5.09802,0 7.84827,2.54901 2.75025,2.54901 2.75025,7.31163 v 23.00817 h -5.09802 v -4.89679 q -0.73788,2.68317 -2.88441,4.22599 -2.14653,1.47575 -5.09802,1.47575 z m 1.20743,-4.69555 q 3.48812,0 5.03094,-2.48193 1.6099,-2.48193 1.6099,-6.23836 v -4.02476 q -0.53664,0.60372 -1.34159,1.00619 -0.80495,0.3354 -2.21361,0.73787 l -3.01856,0.87203 q -4.69555,1.34159 -4.69555,5.43342 0,2.14653 1.20743,3.42104 1.2745,1.2745 3.42104,1.2745 z m 18.04429,3.8906 v -32.06386 h 5.23217 v 4.02475 q 0.87203,-2.21361 2.68317,-3.48812 1.81114,-1.34158 4.22599,-1.34158 6.37253,0 6.37253,7.24455 v 6.4396 h -5.23218 v -6.17128 q 0,-1.34159 -0.73787,-2.01238 -0.67079,-0.67079 -1.81114,-0.67079 -1.07327,0 -2.01238,0.73787 -0.87203,0.73787 -1.87821,2.21361 -0.87203,1.20743 -1.27451,2.61609 -0.3354,1.40867 -0.3354,3.82352 v 18.64802 z m 36.49096,0.80495 q -6.10421,0 -9.59233,-3.68936 -3.42104,-3.75644 -3.42104,-10.39728 v -20.39207 q 0,-6.64084 3.42104,-10.3302 3.48812,-3.75644 9.59233,-3.75644 6.1042,0 9.45816,3.75644 3.42104,3.68936 3.42104,10.3302 v 3.89059 h -5.63465 v -4.36015 q 0,-4.29307 -1.9453,-6.30544 -1.94529,-2.07946 -5.29925,-2.07946 -3.42104,0 -5.43342,2.07946 -1.9453,2.07945 -1.9453,6.30544 v 21.33119 q 0,4.22599 1.9453,6.30544 2.01238,2.07946 5.43342,2.07946 3.35396,0 5.29925,-2.01238 1.9453,-2.07945 1.9453,-6.37252 v -4.36015 h 5.63465 v 3.89059 q 0,6.64084 -3.42104,10.39728 -3.35396,3.68936 -9.45816,3.68936 z m 29.38056,0 q -4.96386,0 -7.91535,-3.01857 -2.95148,-3.08564 -2.95148,-8.72029 v -10.19604 q 0,-5.63466 2.95148,-8.65322 2.95149,-3.08564 7.91535,-3.08564 4.96386,0 7.91534,3.08564 2.95149,3.01856 2.95149,8.65322 v 10.19604 q 0,5.63465 -2.95149,8.72029 -2.95148,3.01857 -7.91534,3.01857 z m 0,-4.82971 q 2.68317,0 4.15891,-1.6099 1.47574,-1.67698 1.47574,-4.89678 v -11.00099 q 0,-3.2198 -1.47574,-4.8297 -1.47574,-1.67698 -4.15891,-1.67698 -2.68317,0 -4.15891,1.67698 -1.47575,1.6099 -1.47575,4.8297 v 11.00099 q 0,3.2198 1.47575,4.89678 1.47574,1.6099 4.15891,1.6099 z m 16.9039,4.02476 v -32.06386 h 5.23218 v 3.95767 q 0.87202,-2.48193 2.75024,-3.62228 1.87822,-1.14034 4.29307,-1.14034 2.81733,0 4.36015,1.34158 1.54282,1.34159 2.14653,3.35396 0.80495,-2.07945 2.61609,-3.35396 1.81114,-1.34158 4.36015,-1.34158 3.15272,0 5.09802,2.07945 2.01238,2.01238 2.01238,5.43342 v 25.35594 h -5.23218 v -24.61807 q 0,-1.67698 -0.87203,-2.61609 -0.80495,-0.93911 -2.34777,-0.93911 -2.14654,0 -4.02476,2.48193 -0.80495,1.00619 -1.07326,2.14654 -0.26832,1.07326 -0.26832,2.75024 v 20.79456 h -5.23218 v -24.61807 q 0,-1.67698 -0.87203,-2.61609 -0.80495,-0.93911 -2.34777,-0.93911 -2.14653,0 -4.02475,2.48193 -0.80495,1.00619 -1.07327,2.14654 -0.26831,1.07326 -0.26831,2.75024 v 20.79456 z m 66.14,0 h -5.56758 l -2.21361,-10.12896 h -13.34876 l -2.21361,10.12896 h -5.63466 l 10.86683,-46.95544 h 7.24456 z m -14.48911,-40.65 -5.50049,25.28886 H 376.474 Z m 24.01427,40.65 h -5.23218 v -46.95544 h 5.23218 z m 27.972,-15.29406 h -16.70272 v 5.1651 q 0,2.95148 1.54282,4.56138 1.6099,1.54282 4.22599,1.54282 2.75024,0 4.09183,-1.54282 1.40866,-1.6099 1.40866,-4.56138 v -0.53664 h 5.36634 v 0.20124 q 0,5.1651 -2.81733,8.25074 -2.75025,3.01857 -7.91534,3.01857 -5.09802,0 -8.11659,-3.21981 -3.01856,-3.2198 -3.01856,-8.78737 v -9.65941 q 0,-5.23217 2.95148,-8.58613 2.95149,-3.42104 7.98243,-3.42104 5.23218,0 8.11658,3.35396 2.88441,3.28688 2.88441,8.65321 z m -10.93391,-12.74505 q -2.41485,0 -4.09183,1.67698 -1.67698,1.67698 -1.67698,4.62846 v 2.01238 h 11.47054 v -2.01238 q 0,-2.95148 -1.6099,-4.62846 -1.54282,-1.67698 -4.09183,-1.67698 z m -3.01857,-9.12277 h -5.50049 v -0.67079 l 5.83589,-9.12277 h 5.36634 l 5.83589,9.12277 v 0.67079 h -5.5005 l -3.01856,-5.29926 z"
     id="text1"
     aria-label="@ViajarComAlê" />
</svg>
