<?xml version="1.0" encoding="UTF-8" standalone="no"?>
<svg
   id="Layer_1"
   data-name="Layer 1"
   viewBox="0 0 512 512"
   version="1.1"
   width="512"
   height="512"
   xmlns="http://www.w3.org/2000/svg"
   xmlns:svg="http://www.w3.org/2000/svg"
   xmlns:rdf="http://www.w3.org/1999/02/22-rdf-syntax-ns#"
   xmlns:cc="http://creativecommons.org/ns#"
   xmlns:dc="http://purl.org/dc/elements/1.1/">
  <defs
     id="defs1" />
  <title
     id="title1">viajarcomale</title>
  <metadata
     id="metadata1">
    <rdf:RDF>
      <cc:Work
         rdf:about="">
        <dc:title>viajarcomale</dc:title>
      </cc:Work>
    </rdf:RDF>
  </metadata>
  <g
     id="layer1">
    <rect
       style="fill:#ffffff;fill-opacity:1"
       id="rect2"
       width="512"
       height="512"
       x="0"
       y="0" />
  </g>
  <path
     d="m 298.36643,240.75455 a 76.7243,76.7243 0 0 1 -7.45232,17.45161 h 15.54927 a 12.058922,12.058922 0 0 0 2.1225,1.02196 v 0 a 11.005536,11.005536 0 0 0 10.50242,-1.57223 l 4.27643,-2.9086 a 83.799293,83.799293 0 0 1 -6.68193,12.04319 78.862515,78.862515 0 0 1 -21.3822,21.36646 81.755405,81.755405 0 0 1 -13.52107,7.34226 77.494681,77.494681 0 0 1 -15.04615,4.71667 82.337125,82.337125 0 0 1 -31.86888,0 77.038738,77.038738 0 0 1 -14.79459,-4.57517 l -0.25154,-0.0944 a 82.400012,82.400012 0 0 1 -13.52111,-7.34226 78.312244,78.312244 0 0 1 -11.72874,-9.65343 c -1.57221,-1.57222 -3.0501,-3.14444 -4.48081,-4.87388 a 76.36269,76.36269 0 0 1 7.13787,-5.4399 q 1.77662,2.05964 3.679,3.96202 v 0 a 68.139987,68.139987 0 0 0 10.36091,8.53715 74.696128,74.696128 0 0 0 12.09037,6.5404 l 0.20438,0.0944 a 67.43248,67.43248 0 0 0 13.04942,4.00914 c 1.11628,0.22011 2.26401,0.4245 3.41171,0.58174 a 141.89279,141.89279 0 0 1 -25.15551,-27.10506 h -12.57775 c 4.71667,-2.98721 9.96786,-5.8958 15.17192,-8.63148 0.39306,0.67606 0.80184,1.3364 1.22633,1.99672 h 28.70874 v -16.09952 l 2.20109,-0.9276 a 10.581036,10.581036 0 0 0 4.71667,4.60659 v 12.40481 h 28.56722 c 6.82344,-10.70681 10.50244,-21.49223 11.00555,-32.34056 l 4.52797,14.88893 z m -58.28216,-25.62718 c 1.0691,-3.41172 4.04059,-6.14737 8.34849,-8.91449 L 233.71677,189.0128 c -0.99049,-0.86472 -0.73893,-1.57221 0.18867,-2.18537 l 4.8896,-2.09107 a 2.861439,2.861439 0 0 1 2.37406,0.29874 l 21.36647,10.76969 25.1555,-14.54302 -34.77749,-43.23604 c -0.89616,-0.9905 -0.77039,-1.76089 0.62889,-2.264 l 7.86109,-3.14444 52.26058,33.787 18.86662,-9.16605 c 7.18506,-3.14443 13.37959,-3.64755 17.2944,-1.30494 a 4.559436,4.559436 0 0 1 2.79856,4.71666 c 0.0785,4.71668 -3.86765,9.81066 -10.83258,14.14999 l -19.60558,7.64098 -1.57221,62.14982 -7.01209,4.71666 c -1.21062,0.86472 -1.91813,0.55026 -2.23257,-0.75467 l -16.22529,-52.99949 -26.16174,12.57776 -3.14443,23.58328 a 2.9086056,2.9086056 0 0 1 -1.14773,2.16966 l -4.44938,2.86143 c -1.02195,0.40877 -1.74518,0.22011 -1.88668,-1.08483 l -5.91153,-21.85384 c -4.71665,2.01244 -8.67864,2.92433 -12.1061,1.85521 -0.31444,-0.0944 -0.34587,-0.23583 -0.25154,-0.53455 z m -6.60331,-10.89549 c -20.78474,11.00555 -48.58158,28.88168 -58.80103,39.30549 -33.42538,34.41587 -7.34227,61.23793 31.71168,49.49344 -12.23186,-1.80804 -21.80668,-4.27643 -27.12078,-7.76676 -22.68713,-14.90464 50.31102,-47.07223 67.38532,-54.11577 l -1.33637,-4.9525 a 20.721851,20.721851 0 0 1 -7.97118,-0.83326 l -0.95906,-0.4245 a 9.511927,9.511927 0 0 1 -5.58138,-5.5185 l -0.20438,-0.55027 a 9.559093,9.559093 0 0 1 -0.11005,-6.69765 20.596074,20.596074 0 0 1 3.78906,-7.02783 l -0.77039,-0.91189 z m -61.55241,27.65534 a 83.815009,83.815009 0 0 1 -0.53455,-9.60626 80.85924,80.85924 0 0 1 1.57222,-15.94229 75.891029,75.891029 0 0 1 4.55945,-14.79459 l 0.0944,-0.23583 a 83.830741,83.830741 0 0 1 7.35797,-13.53681 77.306027,77.306027 0 0 1 9.63771,-11.71303 78.312244,78.312244 0 0 1 11.72875,-9.65344 82.400012,82.400012 0 0 1 13.52109,-7.34227 77.840575,77.840575 0 0 1 15.04615,-4.71665 80.969291,80.969291 0 0 1 9.2289,-1.28921 14.527306,14.527306 0 0 0 1.16345,1.57221 l 8.99309,11.20992 v 23.77198 h 16.06809 l -8.15981,4.71665 -14.8103,-7.45233 v -21.08346 a 163.71519,163.71519 0 0 0 -22.70285,23.81914 h 2.09104 a 10.769701,10.769701 0 0 0 -3.4117,5.50276 8.521429,8.521429 0 0 0 -0.26728,1.25777 v 0.1415 h -3.2545 a 81.315177,81.315177 0 0 0 -9.02454,18.47357 c -2.84572,1.71372 -5.70716,3.45888 -8.53715,5.25121 a 79.664353,79.664353 0 0 1 9.43332,-23.78766 h -21.64947 a 76.91297,76.91297 0 0 0 -4.19782,8.36419 l -0.0944,0.20439 a 66.206156,66.206156 0 0 0 -4.00917,13.11231 70.372527,70.372527 0 0 0 -1.28923,10.72253 h 8.74155 a 205.00168,205.00168 0 0 0 -17.29443,13.04943 z m 121.86273,-6.13165 H 276.7956 l 0.92759,-6.91776 h 13.99277 l 2.09105,6.91776 z m -7.09071,39.08536 a 142.80467,142.80467 0 0 1 -25.15551,27.12079 c 1.14772,-0.17295 2.27973,-0.37733 3.41172,-0.59746 a 68.375813,68.375813 0 0 0 13.23809,-4.10349 74.035809,74.035809 0 0 0 12.09036,-6.54043 68.139987,68.139987 0 0 0 10.36093,-8.53717 v 0 a 67.212371,67.212371 0 0 0 6.49326,-7.34225 z m -32.41916,24.25935 a 147.52133,147.52133 0 0 0 23.96062,-24.25935 h -23.96062 z m -6.88631,-24.25935 h -23.97636 a 148.15021,148.15021 0 0 0 23.97636,24.25935 z m -31.19285,-85.22998 a 158.13383,158.13383 0 0 1 24.46374,-27.05792 c -1.35211,0.18867 -2.68849,0.40878 -4.00918,0.67606 a 66.033213,66.033213 0 0 0 -13.25378,4.10349 74.696128,74.696128 0 0 0 -12.09038,6.54044 68.139987,68.139987 0 0 0 -10.36091,8.53715 v 0 a 67.982762,67.982762 0 0 0 -6.28889,7.18503 z"
     id="path1"
     style="fill:#172157;fill-opacity:1;stroke-width:1.5722" />
  <path
     style="font-stretch:condensed;font-size:60.7928px;font-family:'Instagram Sans Condensed';-inkscape-font-specification:'Instagram Sans Condensed,  Condensed';fill:#2096cc;stroke-width:1.5722"
     d="m 133.86759,339.13789 h -4.43788 v -1.21586 q 0,-11.06429 -10.0916,-11.06429 -4.55946,0 -7.23435,2.91806 -2.61409,2.85726 -2.61409,8.3894 v 12.82728 q 0,5.16739 2.49251,8.26782 2.4925,3.10044 7.17355,3.10044 h 0.36476 q 4.37708,0 6.86958,-2.43172 2.49251,-2.43171 2.49251,-6.01848 v -1.64141 q 0,-3.82995 -1.94537,-5.41056 v 1.76299 q 0,4.2555 -2.00616,6.56563 -1.94537,2.24933 -5.53215,2.24933 -3.03964,0 -5.10659,-2.00616 -2.06696,-2.06696 -2.06696,-5.47136 0,-3.52598 2.00616,-5.59293 2.06696,-2.06696 5.77532,-2.06696 h 2.91805 v -2.37092 q 0,-4.25549 -3.28281,-4.25549 -1.51982,0 -2.37092,1.09427 -0.7903,1.09427 -0.7903,2.67488 v 0.60793 h -3.89074 v -0.60793 q 0,-3.76915 2.00616,-5.71452 2.00616,-1.94537 5.0458,-1.94537 3.52598,0 5.41056,2.06695 1.88458,2.00617 1.88458,5.71453 v 3.16122 q 3.10043,0.97269 4.68104,3.52598 1.64141,2.5533 1.64141,6.26166 v 1.09427 q 0,6.32245 -3.89074,9.66606 -3.89074,3.3436 -9.97002,3.3436 h -0.24317 q -4.13391,0 -7.41672,-1.76299 -3.22202,-1.82378 -5.1066,-5.28897 -1.88457,-3.46519 -1.88457,-8.20703 v -13.43521 q 0,-4.86342 1.88457,-8.32861 1.94537,-3.46519 5.22818,-5.22818 3.28281,-1.763 7.47752,-1.763 6.86958,0 10.69953,3.95154 3.82995,3.95153 3.82995,11.36825 z m -14.59028,14.40789 q 1.94537,0 2.79647,-1.21586 0.8511,-1.27664 0.8511,-3.82994 v -2.79647 h -2.85726 q -1.88458,0 -2.91805,1.03348 -1.03348,1.03347 -1.03348,3.03964 0,1.70219 0.91189,2.73567 0.91189,1.03348 2.24933,1.03348 z m 34.77347,12.34094 h -6.20087 l -10.63874,-42.55496 h 5.1066 l 8.63258,36.90123 8.69337,-36.90123 h 5.0458 z m 16.83951,-35.62458 q -1.39823,0 -2.43171,-1.03348 -1.03348,-1.03348 -1.03348,-2.43171 0,-1.39824 1.03348,-2.43171 1.03348,-1.03348 2.43171,-1.03348 1.39824,0 2.43171,1.03348 1.03348,1.03347 1.03348,2.43171 0,1.39823 -1.03348,2.43171 -1.03347,1.03348 -2.43171,1.03348 z m 2.37092,35.62458 h -4.74184 v -29.05896 h 4.74184 z m 12.70568,0.72951 q -3.52598,0 -5.71452,-2.31012 -2.12775,-2.31013 -2.12775,-6.01849 0,-3.58678 1.94537,-5.65373 1.94537,-2.12775 5.71453,-3.22202 l 4.37708,-1.27665 q 1.58061,-0.42555 2.24933,-1.15506 0.66872,-0.72952 0.66872,-2.18854 0,-2.00617 -1.27665,-3.22202 -1.27665,-1.21586 -3.58677,-1.21586 -2.12775,0 -3.46519,1.27665 -1.27665,1.21586 -1.27665,3.46519 v 1.15506 h -4.74184 v -1.15506 q 0,-4.13391 2.5533,-6.56562 2.61409,-2.43171 6.93038,-2.43171 4.62025,0 7.11275,2.31012 2.49251,2.31013 2.49251,6.62642 v 20.85193 h -4.62025 v -4.43788 q -0.66872,2.43172 -2.61409,3.82995 -1.94537,1.33744 -4.62026,1.33744 z m 1.09427,-4.25549 q 3.16123,0 4.55946,-2.24934 1.45903,-2.24933 1.45903,-5.65373 v -3.64757 q -0.48634,0.54714 -1.21585,0.9119 -0.72952,0.30396 -2.00617,0.66872 l -2.73567,0.7903 q -4.2555,1.21586 -4.2555,4.92422 0,1.94537 1.09427,3.10043 1.15506,1.15507 3.10043,1.15507 z m 18.72417,-32.0986 q -1.39824,0 -2.43172,-1.03348 -1.03347,-1.03348 -1.03347,-2.43171 0,-1.39824 1.03347,-2.43171 1.03348,-1.03348 2.43172,-1.03348 1.39823,0 2.43171,1.03348 1.03348,1.03347 1.03348,2.43171 0,1.39823 -1.03348,2.43171 -1.03348,1.03348 -2.43171,1.03348 z m -6.8088,49.12058 -0.48634,-4.37708 h 2.49251 q 1.21585,0 1.82378,-0.60793 0.60793,-0.54713 0.60793,-1.82378 v -35.74617 h 4.74184 v 35.86775 q 0,3.46519 -1.7022,5.0458 -1.64141,1.64141 -5.16739,1.64141 z m 21.88539,-12.76649 q -3.52598,0 -5.71452,-2.31012 -2.12775,-2.31013 -2.12775,-6.01849 0,-3.58678 1.94537,-5.65373 1.94537,-2.12775 5.71452,-3.22202 l 4.37708,-1.27665 q 1.58062,-0.42555 2.24934,-1.15506 0.66872,-0.72952 0.66872,-2.18854 0,-2.00617 -1.27665,-3.22202 -1.27665,-1.21586 -3.58678,-1.21586 -2.12774,0 -3.46519,1.27665 -1.27664,1.21586 -1.27664,3.46519 v 1.15506 h -4.74184 v -1.15506 q 0,-4.13391 2.5533,-6.56562 2.61409,-2.43171 6.93037,-2.43171 4.62026,0 7.11276,2.31012 2.49251,2.31013 2.49251,6.62642 v 20.85193 h -4.62026 v -4.43788 q -0.66872,2.43172 -2.61409,3.82995 -1.94537,1.33744 -4.62025,1.33744 z m 1.09427,-4.25549 q 3.16123,0 4.55946,-2.24934 1.45903,-2.24933 1.45903,-5.65373 v -3.64757 q -0.48634,0.54714 -1.21586,0.9119 -0.72951,0.30396 -2.00616,0.66872 l -2.73568,0.7903 q -4.25549,1.21586 -4.25549,4.92422 0,1.94537 1.09427,3.10043 1.15506,1.15507 3.10043,1.15507 z m 16.35324,3.52598 v -29.05896 h 4.74184 v 3.64757 q 0.7903,-2.00616 2.43171,-3.16123 1.6414,-1.21585 3.82994,-1.21585 5.77532,0 5.77532,6.56562 v 5.83611 h -4.74184 v -5.59294 q 0,-1.21586 -0.66872,-1.82378 -0.60793,-0.60793 -1.6414,-0.60793 -0.97269,0 -1.82379,0.66872 -0.79031,0.66872 -1.7022,2.00616 -0.7903,1.09427 -1.15506,2.37092 -0.30396,1.27665 -0.30396,3.46519 v 16.9004 z m 33.07118,0.72951 q -5.53214,0 -8.69337,-3.3436 -3.10043,-3.4044 -3.10043,-9.42289 v -18.48101 q 0,-6.01848 3.10043,-9.36209 3.16123,-3.4044 8.69337,-3.4044 5.53215,0 8.57179,3.4044 3.10043,3.34361 3.10043,9.36209 v 3.52599 h -5.10659 v -3.95154 q 0,-3.89074 -1.763,-5.71452 -1.76299,-1.88458 -4.80263,-1.88458 -3.10043,0 -4.92421,1.88458 -1.763,1.88458 -1.763,5.71452 v 19.33211 q 0,3.82995 1.763,5.71453 1.82378,1.88457 4.92421,1.88457 3.03964,0 4.80263,-1.82378 1.763,-1.88458 1.763,-5.77532 v -3.95153 h 5.10659 v 3.52598 q 0,6.01849 -3.10043,9.42289 -3.03964,3.3436 -8.57179,3.3436 z m 26.62714,0 q -4.49867,0 -7.17355,-2.73567 -2.67488,-2.79647 -2.67488,-7.90307 v -9.2405 q 0,-5.1066 2.67488,-7.84227 2.67488,-2.79647 7.17355,-2.79647 4.49867,0 7.17355,2.79647 2.67488,2.73567 2.67488,7.84227 v 9.2405 q 0,5.1066 -2.67488,7.90307 -2.67488,2.73567 -7.17355,2.73567 z m 0,-4.37708 q 2.43171,0 3.76915,-1.45903 1.33744,-1.51982 1.33744,-4.43787 v -9.97002 q 0,-2.91805 -1.33744,-4.37708 -1.33744,-1.51982 -3.76915,-1.51982 -2.43171,0 -3.76915,1.51982 -1.33745,1.45903 -1.33745,4.37708 v 9.97002 q 0,2.91805 1.33745,4.43787 1.33744,1.45903 3.76915,1.45903 z m 15.31973,3.64757 v -29.05896 h 4.74184 v 3.58678 q 0.7903,-2.24934 2.4925,-3.28282 1.7022,-1.03347 3.89074,-1.03347 2.5533,0 3.95153,1.21585 1.39824,1.21586 1.94537,3.03964 0.72952,-1.88457 2.37092,-3.03964 1.64141,-1.21585 3.95153,-1.21585 2.85727,0 4.62026,1.88457 1.82378,1.82379 1.82378,4.92422 v 22.97968 h -4.74184 v -22.31096 q 0,-1.51982 -0.7903,-2.37092 -0.72952,-0.8511 -2.12775,-0.8511 -1.94537,0 -3.64757,2.24934 -0.72951,0.91189 -0.97269,1.94537 -0.24317,0.97268 -0.24317,2.4925 v 18.84577 h -4.74183 v -22.31096 q 0,-1.51982 -0.79031,-2.37092 -0.72951,-0.8511 -2.12775,-0.8511 -1.94537,0 -3.64757,2.24934 -0.72951,0.91189 -0.97268,1.94537 -0.24317,0.97268 -0.24317,2.4925 v 18.84577 z m 59.9416,0 h -5.0458 l -2.00617,-9.17971 h -12.09776 l -2.00616,9.17971 h -5.1066 l 9.84843,-42.55496 h 6.56563 z m -13.13125,-36.84044 -4.985,22.91889 h 10.03081 z m 21.76375,36.84044 h -4.74184 v -42.55496 h 4.74184 z m 25.35059,-13.86076 h -15.13741 v 4.68105 q 0,2.67488 1.39824,4.13391 1.45902,1.39823 3.82994,1.39823 2.49251,0 3.70836,-1.39823 1.27665,-1.45903 1.27665,-4.13391 v -0.48635 h 4.86343 v 0.18238 q 0,4.68105 -2.5533,7.47752 -2.49251,2.73567 -7.17355,2.73567 -4.62025,0 -7.35593,-2.91805 -2.73568,-2.91806 -2.73568,-7.96386 v -8.75416 q 0,-4.74184 2.67489,-7.78148 2.67488,-3.10043 7.23434,-3.10043 4.74184,0 7.35593,3.03964 2.61409,2.97884 2.61409,7.84227 z m -9.90923,-11.55063 q -2.18854,0 -3.70836,1.51982 -1.51982,1.51982 -1.51982,4.1947 v 1.82379 h 10.39557 v -1.82379 q 0,-2.67488 -1.45903,-4.1947 -1.39823,-1.51982 -3.70836,-1.51982 z m -2.73567,-8.26782 h -4.98501 v -0.60793 l 5.28897,-8.26782 h 4.86342 l 5.28898,8.26782 v 0.60793 h -4.98501 l -2.73568,-4.80263 z"
     id="text1"
     aria-label="@ViajarComAlê" />
</svg>
