<?xml version="1.0" encoding="UTF-8" standalone="no"?>
<svg
   id="Layer_1"
   data-name="Layer 1"
   viewBox="0 0 512 512"
   version="1.1"
   sodipodi:docname="viajarcomale - icon.svg"
   inkscape:version="1.3 (0e150ed, 2023-07-21)"
   width="512"
   height="512"
   inkscape:export-filename="512x512.png"
   inkscape:export-xdpi="96"
   inkscape:export-ydpi="96"
   xmlns:inkscape="http://www.inkscape.org/namespaces/inkscape"
   xmlns:sodipodi="http://sodipodi.sourceforge.net/DTD/sodipodi-0.dtd"
   xmlns="http://www.w3.org/2000/svg"
   xmlns:svg="http://www.w3.org/2000/svg"
   xmlns:rdf="http://www.w3.org/1999/02/22-rdf-syntax-ns#"
   xmlns:cc="http://creativecommons.org/ns#"
   xmlns:dc="http://purl.org/dc/elements/1.1/">
  <defs
     id="defs1">
    <filter
       style="color-interpolation-filters:sRGB"
       inkscape:label="Drop Shadow"
       id="filter14"
       x="-0.016"
       y="-0.016"
       width="1.0386667"
       height="1.0386667">
      <feFlood
         result="flood"
         in="SourceGraphic"
         flood-opacity="0.498039"
         flood-color="rgb(0,0,0)"
         id="feFlood13" />
      <feGaussianBlur
         result="blur"
         in="SourceGraphic"
         stdDeviation="3.000000"
         id="feGaussianBlur13" />
      <feOffset
         result="offset"
         in="blur"
         dx="3.000000"
         dy="3.000000"
         id="feOffset13" />
      <feComposite
         result="comp1"
         operator="in"
         in="flood"
         in2="offset"
         id="feComposite13" />
      <feComposite
         result="comp2"
         operator="over"
         in="SourceGraphic"
         in2="comp1"
         id="feComposite14" />
    </filter>
  </defs>
  <sodipodi:namedview
     id="namedview1"
     pagecolor="#ffffff"
     bordercolor="#000000"
     borderopacity="0.25"
     inkscape:showpageshadow="2"
     inkscape:pageopacity="0.0"
     inkscape:pagecheckerboard="0"
     inkscape:deskcolor="#d1d1d1"
     inkscape:zoom="0.8343301"
     inkscape:cx="272.67385"
     inkscape:cy="260.0889"
     inkscape:window-width="1160"
     inkscape:window-height="693"
     inkscape:window-x="322"
     inkscape:window-y="81"
     inkscape:window-maximized="0"
     inkscape:current-layer="layer1"
     inkscape:export-bgcolor="#ffffff00" />
  <title
     id="title1">viajarcomale</title>
  <metadata
     id="metadata1">
    <rdf:RDF>
      <cc:Work
         rdf:about="">
        <dc:title>viajarcomale</dc:title>
      </cc:Work>
    </rdf:RDF>
  </metadata>
  <g
     inkscape:groupmode="layer"
     id="layer1"
     inkscape:label="background">
    <rect
       style="fill:#ffffff;fill-opacity:1;stroke-width:1.32486;filter:url(#filter14)"
       id="rect1"
       width="450"
       height="450"
       x="31"
       y="31"
       ry="37.923389" />
  </g>
  <path
     d="m 312.85211,235.54185 a 102.95771,102.95771 0 0 1 -10.00038,23.41864 h 20.86583 a 16.182084,16.182084 0 0 0 2.84822,1.37138 v 0 a 14.768525,14.768525 0 0 0 14.09338,-2.10979 l 5.73863,-3.90311 a 112.45177,112.45177 0 0 1 -8.96661,16.16098 105.82702,105.82702 0 0 1 -28.69315,28.67203 109.70904,109.70904 0 0 1 -18.14417,9.85271 103.9915,103.9915 0 0 1 -20.19069,6.32938 110.48966,110.48966 0 0 1 -42.76542,0 103.37966,103.37966 0 0 1 -19.85312,-6.13949 l -0.33756,-0.12658 a 110.57405,110.57405 0 0 1 -18.1442,-9.85273 105.0886,105.0886 0 0 1 -15.73903,-12.9541 c -2.10978,-2.1098 -4.09298,-4.21958 -6.01287,-6.54035 a 102.47246,102.47246 0 0 1 9.57843,-7.29988 q 2.38407,2.76384 4.93692,5.31669 v 0 a 91.438267,91.438267 0 0 0 13.90349,11.45614 100.23607,100.23607 0 0 0 16.22428,8.77671 l 0.27427,0.12661 a 90.488852,90.488852 0 0 0 17.51124,5.37995 c 1.49796,0.29538 3.03812,0.56965 4.57825,0.78064 A 190.40847,190.40847 0 0 1 200.80122,267.8849 h -16.87831 c 6.32938,-4.00859 13.37606,-7.91168 20.35946,-11.58273 0.52746,0.90722 1.07601,1.79333 1.64564,2.67944 h 38.52477 v -21.60425 l 2.95369,-1.24476 a 14.198881,14.198881 0 0 0 6.32938,6.18167 v 16.64623 h 38.33485 c 9.1565,-14.36765 14.09341,-28.84081 14.76855,-43.39836 l 6.07618,19.97972 z m -78.20986,-34.38957 c 1.43464,-4.57825 5.42215,-8.24927 11.20299,-11.96251 L 226.0976,166.10868 c -1.32917,-1.16038 -0.9916,-2.10978 0.25317,-2.93259 l 6.56145,-2.80604 a 3.8398163,3.8398163 0 0 1 3.18579,0.40087 l 28.67203,14.45205 33.75662,-19.51554 -46.66853,-58.019218 c -1.20257,-1.329166 -1.0338,-2.362965 0.84392,-3.038097 l 10.54895,-4.219578 70.12939,45.339383 25.31745,-12.30009 c 9.64176,-4.21957 17.95432,-4.89471 23.20768,-1.75112 a 6.1183887,6.1183887 0 0 1 3.75544,6.32937 c 0.10546,6.32938 -5.19008,13.16509 -14.53644,18.98811 l -26.30908,10.25357 -2.10978,83.39997 -9.40965,6.32937 c -1.62455,1.16039 -2.57397,0.73841 -2.99592,-1.0127 l -21.77302,-71.12099 -35.1069,16.87833 -4.21957,31.64683 a 3.90311,3.90311 0 0 1 -1.54015,2.91151 l -5.9707,3.83981 c -1.37138,0.54854 -2.34189,0.29537 -2.53177,-1.45576 l -7.93279,-29.32606 c -6.32937,2.70053 -11.64602,3.9242 -16.24539,2.48953 -0.42195,-0.12657 -0.46414,-0.31645 -0.33755,-0.71732 z m -8.8611,-14.62084 c -27.89143,14.76853 -65.1925,38.75684 -78.90616,52.74474 -44.85411,46.18327 -9.85272,82.17627 42.55447,66.41614 -16.41414,-2.42626 -29.26277,-5.73862 -36.39386,-10.42235 -30.44427,-20.00081 67.51326,-63.16707 90.42557,-72.61893 l -1.79331,-6.64585 a 27.807023,27.807023 0 0 1 -10.69665,-1.11816 l -1.28697,-0.56966 a 12.764225,12.764225 0 0 1 -7.48976,-7.40537 l -0.27426,-0.73842 a 12.827518,12.827518 0 0 1 -0.14768,-8.9877 27.638239,27.638239 0 0 1 5.08459,-9.43076 l -1.03379,-1.22368 z m -82.59828,37.1112 a 112.47286,112.47286 0 0 1 -0.71733,-12.89082 108.50646,108.50646 0 0 1 2.10979,-21.39325 101.83953,101.83953 0 0 1 6.11841,-19.85312 l 0.12659,-0.31647 a 112.49397,112.49397 0 0 1 9.8738,-18.16528 103.73834,103.73834 0 0 1 12.93301,-15.71794 105.0886,105.0886 0 0 1 15.73902,-12.95411 110.57405,110.57405 0 0 1 18.1442,-9.85272 104.45566,104.45566 0 0 1 20.19069,-6.32937 108.65414,108.65414 0 0 1 12.38445,-1.73002 19.494451,19.494451 0 0 0 1.56124,2.10979 l 12.06799,15.04279 v 31.90004 h 21.56206 l -10.94981,6.32936 -19.8742,-10.00041 v -28.29228 a 219.69235,219.69235 0 0 0 -30.46536,31.96333 h 2.80601 a 14.452055,14.452055 0 0 0 -4.57823,7.38425 11.435058,11.435058 0 0 0 -0.35868,1.68783 v 0.18988 h -4.36725 a 109.11829,109.11829 0 0 0 -12.11019,24.79002 c -3.81873,2.29967 -7.65855,4.64153 -11.45617,7.0467 a 106.90302,106.90302 0 0 1 12.65874,-31.9211 h -29.0518 a 103.21089,103.21089 0 0 0 -5.63314,11.22407 l -0.12657,0.27427 a 88.843225,88.843225 0 0 0 -5.37997,17.59564 94.434153,94.434153 0 0 0 -1.73004,14.38876 h 11.73044 a 275.09541,275.09541 0 0 0 -23.2077,17.51127 z m 163.52978,-8.22818 h -22.80682 l 1.24477,-9.28307 h 18.77713 l 2.80602,9.28307 z m -9.51515,52.44935 a 191.63215,191.63215 0 0 1 -33.75662,36.39386 c 1.54013,-0.23208 3.05919,-0.50634 4.57824,-0.80173 a 91.754726,91.754726 0 0 0 17.76442,-5.50655 99.349976,99.349976 0 0 0 16.22427,-8.77672 91.438267,91.438267 0 0 0 13.90352,-11.45617 v 0 a 90.193484,90.193484 0 0 0 8.71342,-9.8527 z m -43.50385,32.55405 a 197.96151,197.96151 0 0 0 32.15318,-32.55405 h -32.15318 z m -9.24087,-32.55405 h -32.1743 a 198.80543,198.80543 0 0 0 32.1743,32.55405 z M 202.59454,153.49216 a 212.20261,212.20261 0 0 1 32.82833,-36.3095 c -1.81442,0.25318 -3.60774,0.54855 -5.37998,0.90721 a 88.611151,88.611151 0 0 0 -17.78549,5.50655 100.23607,100.23607 0 0 0 -16.2243,8.77674 91.438267,91.438267 0 0 0 -13.90349,11.45615 v 0 a 91.227284,91.227284 0 0 0 -8.43918,9.64172 z"
     id="path1"
     style="fill:#172157;fill-opacity:1;stroke-width:2.10977" />
  <path
     style="font-stretch:condensed;font-size:81.579px;font-family:'Instagram Sans Condensed';-inkscape-font-specification:'Instagram Sans Condensed,  Condensed';fill:#2096cc;stroke-width:2.10977"
     d="m 92.108205,367.56416 h -5.955267 v -1.63158 q 0,-14.84738 -13.542115,-14.84738 -6.118425,0 -9.707901,3.9158 -3.507897,3.83421 -3.507897,11.2579 v 17.21317 q 0,6.93421 3.344739,11.09474 3.344739,4.16053 9.626322,4.16053 h 0.489474 q 5.873688,0 9.218428,-3.26316 3.344739,-3.26316 3.344739,-8.07632 v -2.20263 q 0,-5.13948 -2.610528,-7.26053 v 2.36579 q 0,5.71053 -2.692107,8.81053 -2.610529,3.01842 -7.42369,3.01842 -4.07895,0 -6.852636,-2.69211 -2.773686,-2.77368 -2.773686,-7.34211 0,-4.73158 2.692107,-7.50526 2.773686,-2.77369 7.750005,-2.77369 h 3.915792 v -3.18158 q 0,-5.71053 -4.405266,-5.71053 -2.039475,0 -3.181581,1.46842 -1.060527,1.46842 -1.060527,3.58948 v 0.81579 h -5.221056 v -0.81579 q 0,-5.0579 2.692107,-7.66843 2.692107,-2.61053 6.771057,-2.61053 4.731582,0 7.260532,2.77369 2.528949,2.69211 2.528949,7.66843 v 4.2421 q 4.160529,1.30527 6.281583,4.73159 2.202633,3.42631 2.202633,8.40263 v 1.46842 q 0,8.48422 -5.221056,12.97107 -5.221056,4.48684 -13.378957,4.48684 h -0.326316 q -5.547372,0 -9.952638,-2.36579 -4.323687,-2.44737 -6.852636,-7.09737 -2.528949,-4.65001 -2.528949,-11.01317 v -18.02896 q 0,-6.52632 2.528949,-11.17632 2.610528,-4.65 7.015794,-7.0158 4.405266,-2.36579 10.034217,-2.36579 9.218428,0 14.357905,5.30264 5.139477,5.30263 5.139477,15.25527 z m -19.578961,19.33423 q 2.610528,0 3.752634,-1.63158 1.142106,-1.71316 1.142106,-5.13948 v -3.75264 h -3.834213 q -2.528949,0 -3.915792,1.38685 -1.386843,1.38684 -1.386843,4.07895 0,2.28421 1.223685,3.67105 1.223685,1.38685 3.018423,1.38685 z m 46.663166,16.56053 h -8.32106 l -14.276323,-57.1053 h 6.852633 l 11.58422,49.51846 11.6658,-49.51846 h 6.77106 z m 22.59726,-47.80529 q -1.87632,0 -3.26316,-1.38685 -1.38684,-1.38684 -1.38684,-3.26316 0,-1.87631 1.38684,-3.26316 1.38684,-1.38684 3.26316,-1.38684 1.87632,0 3.26316,1.38684 1.38684,1.38685 1.38684,3.26316 0,1.87632 -1.38684,3.26316 -1.38684,1.38685 -3.26316,1.38685 z m 3.18158,47.80529 h -6.36316 v -38.99476 h 6.36316 z m 17.05,0.97895 q -4.73159,0 -7.66843,-3.1 -2.85526,-3.1 -2.85526,-8.07632 0,-4.81316 2.61052,-7.58685 2.61053,-2.85526 7.66843,-4.32369 l 5.87369,-1.71316 q 2.12105,-0.57105 3.01842,-1.55 0.89737,-0.97894 0.89737,-2.93684 0,-2.69211 -1.71316,-4.32369 -1.71316,-1.63158 -4.81316,-1.63158 -2.85526,0 -4.65,1.71316 -1.71316,1.63158 -1.71316,4.65 v 1.55001 h -6.36316 v -1.55001 q 0,-5.54737 3.42631,-8.81053 3.5079,-3.26316 9.30001,-3.26316 6.2,0 9.54474,3.1 3.34474,3.10001 3.34474,8.89212 v 27.98159 h -6.2 v -5.95526 q -0.89737,3.26316 -3.5079,5.13947 -2.61053,1.79474 -6.2,1.79474 z m 1.46842,-5.71053 q 4.24211,0 6.11842,-3.01842 1.9579,-3.01842 1.9579,-7.58685 v -4.89474 q -0.65263,0.73421 -1.63158,1.22369 -0.97895,0.40789 -2.69211,0.89736 l -3.67105,1.06053 q -5.71053,1.63158 -5.71053,6.6079 0,2.61053 1.46842,4.16053 1.55,1.55 4.16053,1.55 z m 25.12629,-43.07371 q -1.87631,0 -3.26316,-1.38685 -1.38684,-1.38684 -1.38684,-3.26316 0,-1.87631 1.38684,-3.26316 1.38685,-1.38684 3.26316,-1.38684 1.87632,0 3.26316,1.38684 1.38685,1.38685 1.38685,3.26316 0,1.87632 -1.38685,3.26316 -1.38684,1.38685 -3.26316,1.38685 z m -9.13685,65.91583 -0.65263,-5.87369 h 3.34474 q 1.63158,0 2.44737,-0.81579 0.81579,-0.73421 0.81579,-2.44737 v -47.96845 h 6.36316 v 48.13161 q 0,4.65 -2.28421,6.77106 -2.20263,2.20263 -6.93421,2.20263 z m 29.36843,-17.13159 q -4.73158,0 -7.66843,-3.1 -2.85526,-3.1 -2.85526,-8.07632 0,-4.81316 2.61053,-7.58685 2.61053,-2.85526 7.66842,-4.32369 l 5.87369,-1.71316 q 2.12106,-0.57105 3.01843,-1.55 0.89736,-0.97894 0.89736,-2.93684 0,-2.69211 -1.71315,-4.32369 -1.71316,-1.63158 -4.81317,-1.63158 -2.85526,0 -4.65,1.71316 -1.71316,1.63158 -1.71316,4.65 v 1.55001 h -6.36316 v -1.55001 q 0,-5.54737 3.42632,-8.81053 3.50789,-3.26316 9.3,-3.26316 6.20001,0 9.54475,3.1 3.34474,3.10001 3.34474,8.89212 v 27.98159 h -6.20001 v -5.95526 q -0.89737,3.26316 -3.50789,5.13947 -2.61053,1.79474 -6.20001,1.79474 z m 1.46842,-5.71053 q 4.24211,0 6.11843,-3.01842 1.95789,-3.01842 1.95789,-7.58685 v -4.89474 q -0.65263,0.73421 -1.63158,1.22369 -0.97894,0.40789 -2.6921,0.89736 l -3.67106,1.06053 q -5.71053,1.63158 -5.71053,6.6079 0,2.61053 1.46842,4.16053 1.55001,1.55 4.16053,1.55 z m 21.94472,4.73158 v -38.99476 h 6.36316 v 4.89474 q 1.06052,-2.69211 3.26316,-4.24211 2.20263,-1.63158 5.13947,-1.63158 7.75001,0 7.75001,8.81053 v 7.83159 h -6.36316 v -7.50527 q 0,-1.63158 -0.89737,-2.44737 -0.81579,-0.81579 -2.20263,-0.81579 -1.30527,0 -2.44737,0.89737 -1.06053,0.89737 -2.28422,2.69211 -1.06052,1.46842 -1.55,3.18158 -0.40789,1.71316 -0.40789,4.65 v 22.67896 z m 44.37884,0.97895 q -7.42369,0 -11.6658,-4.48684 -4.16053,-4.56843 -4.16053,-12.64475 v -24.80002 q 0,-8.07632 4.16053,-12.56316 4.24211,-4.56843 11.6658,-4.56843 7.42368,0 11.50263,4.56843 4.16053,4.48684 4.16053,12.56316 v 4.73159 h -6.85263 v -5.30264 q 0,-5.22106 -2.36579,-7.66843 -2.36579,-2.52894 -6.44474,-2.52894 -4.16053,0 -6.6079,2.52894 -2.36579,2.52895 -2.36579,7.66843 v 25.94212 q 0,5.13948 2.36579,7.66843 2.44737,2.52895 6.6079,2.52895 4.07895,0 6.44474,-2.44737 2.36579,-2.52895 2.36579,-7.75001 v -5.30263 h 6.85263 v 4.73158 q 0,8.07632 -4.16053,12.64475 -4.07895,4.48684 -11.50263,4.48684 z m 35.73145,0 q -6.03684,0 -9.62632,-3.67105 -3.58948,-3.75264 -3.58948,-10.60527 v -12.40001 q 0,-6.85264 3.58948,-10.52369 3.58948,-3.75264 9.62632,-3.75264 6.03685,0 9.62632,3.75264 3.58948,3.67105 3.58948,10.52369 v 12.40001 q 0,6.85263 -3.58948,10.60527 -3.58947,3.67105 -9.62632,3.67105 z m 0,-5.87369 q 3.26316,0 5.0579,-1.95789 1.79474,-2.03948 1.79474,-5.95527 v -13.37896 q 0,-3.91579 -1.79474,-5.87368 -1.79474,-2.03948 -5.0579,-2.03948 -3.26316,0 -5.0579,2.03948 -1.79473,1.95789 -1.79473,5.87368 v 13.37896 q 0,3.91579 1.79473,5.95527 1.79474,1.95789 5.0579,1.95789 z m 20.55783,4.89474 v -38.99476 h 6.36316 v 4.81316 q 1.06053,-3.01842 3.34474,-4.40526 2.28421,-1.38685 5.22105,-1.38685 3.42632,0 5.30264,1.63158 1.87632,1.63158 2.61053,4.07895 0.97895,-2.52895 3.18158,-4.07895 2.20263,-1.63158 5.30263,-1.63158 3.83422,0 6.20001,2.52895 2.44737,2.44737 2.44737,6.6079 v 30.83686 h -6.36316 v -29.93949 q 0,-2.03948 -1.06053,-3.18158 -0.97895,-1.14211 -2.85527,-1.14211 -2.61052,0 -4.89474,3.01843 -0.97894,1.22368 -1.30526,2.61052 -0.32632,1.30527 -0.32632,3.34474 v 25.28949 h -6.36316 v -29.93949 q 0,-2.03948 -1.06053,-3.18158 -0.97894,-1.14211 -2.85526,-1.14211 -2.61053,0 -4.89474,3.01843 -0.97895,1.22368 -1.30527,2.61052 -0.32631,1.30527 -0.32631,3.34474 v 25.28949 z m 80.43677,0 h -6.77105 l -2.69211,-12.31843 h -16.23422 l -2.69211,12.31843 h -6.85264 l 13.2158,-57.1053 h 8.81053 z m -17.62106,-49.43687 -6.68948,30.75528 h 13.46054 z m 29.20519,49.43687 h -6.36316 v -57.1053 h 6.36316 z m 34.01843,-18.60001 h -20.31317 v 6.28158 q 0,3.58948 1.87632,5.54738 1.9579,1.87631 5.13948,1.87631 3.34474,0 4.97632,-1.87631 1.71316,-1.9579 1.71316,-5.54738 v -0.65263 h 6.52632 v 0.24474 q 0,6.28158 -3.42632,10.03422 -3.34474,3.67105 -9.62633,3.67105 -6.2,0 -9.87105,-3.91579 -3.67106,-3.91579 -3.67106,-10.68685 v -11.74738 q 0,-6.36316 3.58948,-10.44211 3.58947,-4.16053 9.7079,-4.16053 6.36316,0 9.87106,4.07895 3.50789,3.99737 3.50789,10.52369 z M 445.67076,369.3589 q -2.93685,0 -4.97632,2.03948 -2.03948,2.03947 -2.03948,5.62895 v 2.44737 h 13.95001 v -2.44737 q 0,-3.58948 -1.95789,-5.62895 -1.87632,-2.03948 -4.97632,-2.03948 z m -3.67106,-11.09474 h -6.68948 v -0.81579 l 7.09738,-11.09475 h 6.52632 l 7.09737,11.09475 v 0.81579 h -6.68948 l -3.67105,-6.44475 z"
     id="text1"
     aria-label="@ViajarComAlê" />
</svg>
