<svg xmlns="http://www.w3.org/2000/svg" class="gUZ GjR U9O kVc" height="32" width="32" viewBox="0 0 32 32" aria-label="Pinterest" role="img"><path d="M 0,16 C 0,22.830666 4.2813333,28.662667 10.306667,30.957334 10.16,29.708 10.004,27.648 10.340003,26.202666 c 0.289334,-1.242667 1.868,-7.917333 1.868,-7.917333 0,0 -0.476,-0.953333 -0.476,-2.365333 0,-2.213334 1.282666,-3.866667 2.881334,-3.866667 1.359999,0 2.015999,1.02 2.015999,2.242667 0,1.366667 -0.870666,3.409333 -1.32,5.304 -0.374667,1.585334 0.796001,2.878667 2.358667,2.878667 2.830667,0 5.008,-2.985334 5.008,-7.294667 0,-3.814666 -2.741333,-6.48 -6.654667,-6.48 -4.530667,0 -7.1906663,3.398666 -7.1906663,6.912 0,1.369334 0.5266666,2.836 1.1853333,3.634667 A 0.48,0.48 0 0 1 10.12667,19.708 C 10.005333,20.212 9.736,21.293333 9.684,21.514666 9.6133333,21.805333 9.4533333,21.868 9.1506666,21.726667 7.1613333,20.801333 5.9186667,17.893333 5.9186667,15.557333 c 0,-5.025333 3.6493332,-9.6386663 10.5226663,-9.6386663 5.525333,0 9.82,3.9373332 9.82,9.1986663 0,5.489334 -3.46,9.908001 -8.265333,9.908001 -1.614667,0 -3.130667,-0.840001 -3.650666,-1.830668 0,0 -0.798667,3.042668 -0.992,3.786667 C 12.977333,28.426667 11.934667,30.256 11.287999,31.294666 12.778666,31.753333 14.36,32 16,32 24.836,32 32,24.836 32,16 32,7.1639999 24.836,0 16,0 7.1639999,0 0,7.1639999 0,16" fill="#e60023"></path></svg>
